<?xml version="1.0" encoding="utf-8"?>
<!-- Generator: Adobe Illustrator 21.1.0, SVG Export Plug-In . SVG Version: 6.00 Build 0)  -->
<svg version="1.1" id="Слой_1" xmlns="http://www.w3.org/2000/svg" xmlns:xlink="http://www.w3.org/1999/xlink" x="0px" y="0px"
	 width="25px" height="15.8px" viewBox="0 0 25 15.8" enable-background="new 0 0 25 15.8" xml:space="preserve">
<g>
	<path fill="#42040D" d="M22.7,1.6c0.4,0,0.7,0.3,0.7,0.7v11.3c0,0.4-0.3,0.7-0.7,0.7H2.3c-0.4,0-0.7-0.3-0.7-0.7V2.3
		c0-0.4,0.3-0.7,0.7-0.7H22.7 M22.7,0H2.3C1,0,0,1,0,2.3v11.3c0,1.3,1,2.3,2.3,2.3h20.5c1.3,0,2.3-1,2.3-2.3V2.3C25,1,24,0,22.7,0"
		/>
	<g>
		<path fill="#42040D" d="M12.5,10c-0.8,0-1.7-0.3-2.4-0.8l-9.3-7L1.8,1l9.3,7c0.8,0.6,2,0.6,2.8,0l9.3-7l0.9,1.3l-9.3,7
			C14.2,9.7,13.3,10,12.5,10z"/>
	</g>
</g>
</svg>
