<?xml version="1.0" encoding="utf-8"?>
<!-- Generator: Adobe Illustrator 21.1.0, SVG Export Plug-In . SVG Version: 6.00 Build 0)  -->
<svg version="1.1" id="Слой_1" xmlns="http://www.w3.org/2000/svg" xmlns:xlink="http://www.w3.org/1999/xlink" x="0px" y="0px"
	 width="25px" height="11.1px" viewBox="0 0 25 11.1" enable-background="new 0 0 25 11.1" xml:space="preserve">
<g>
	<path fill="#42040B" d="M5.5,1.7c2.1,0,3.8,1.7,3.8,3.8S7.7,9.4,5.5,9.4S1.7,7.7,1.7,5.5S3.4,1.7,5.5,1.7 M5.5,0C2.5,0,0,2.5,0,5.5
		c0,3.1,2.5,5.5,5.5,5.5s5.5-2.5,5.5-5.5C11.1,2.5,8.6,0,5.5,0"/>
	<rect x="10.5" y="4.5" fill="#42040B" width="14.5" height="2.1"/>
	<rect x="19.4" y="2.1" fill="#42040B" width="4.5" height="3.4"/>
	<path fill="#42040B" d="M23.6,5.2h-4V2.4h4V5.2z M24.1,1.8h-5v3.9h5V1.8z"/>
	<rect x="19.5" y="0.8" fill="#42040B" width="1.3" height="4.4"/>
	<path fill="#42040B" d="M20.5,4.8h-0.6V1.1h0.6V4.8z M21.2,0.4h-2.1v5.1h2.1V0.4z"/>
	<rect x="22.4" y="0.8" fill="#42040B" width="1.3" height="4.4"/>
	<path fill="#42040B" d="M23.4,4.8h-0.6V1.1h0.6V4.8z M24.1,0.4H22v5.1h2.1V0.4z"/>
</g>
</svg>
