<?xml version="1.0" encoding="utf-8"?>
<!-- Generator: Adobe Illustrator 21.1.0, SVG Export Plug-In . SVG Version: 6.00 Build 0)  -->
<svg version="1.1" id="Слой_1" xmlns="http://www.w3.org/2000/svg" xmlns:xlink="http://www.w3.org/1999/xlink" x="0px" y="0px"
	 width="30px" height="30px" viewBox="0 0 30 30" enable-background="new 0 0 30 30" xml:space="preserve">
<g>
	<path fill="#42040D" d="M15,1.6c7.4,0,13.4,6,13.4,13.4s-6,13.4-13.4,13.4S1.6,22.4,1.6,15S7.6,1.6,15,1.6 M15,0C6.7,0,0,6.7,0,15
		s6.7,15,15,15s15-6.7,15-15S23.3,0,15,0"/>
	<g>
		<path fill="#42040D" d="M19.4,23.7l-0.5,0c-1.3-0.2-2.9-0.7-4.6-1.5c-2.3-1.1-4.5-3-6.5-5.8c-1.4-2.1-2.1-3.8-2.1-5.3
			c0-3.3,1.5-4.3,2.7-4.7c0.8-0.2,1.6-0.2,2.2,0.1C10.9,6.7,11.2,7,12,8.9c0.9,2.1,0.9,2.3,0.9,2.5c0,0.5-0.3,1.1-0.8,1.7
			c-0.2,0.3-0.4,0.5-0.5,0.7c0.1,0.2,0.4,0.6,0.9,1.3c0.9,1.1,1.9,2,2.9,2.6c1,0.5,1.4,0.7,1.6,0.7c0.1-0.1,0.3-0.3,0.7-0.8
			c0.8-1.1,1.2-1.4,1.7-1.4c0.3,0,0.8,0.1,2.6,1c1.5,0.7,1.9,1,2.1,1.2l0.2,0.2l0,0.2c0,0.2,0.1,0.4,0.1,0.6c0,1.6-0.8,2.9-2.4,3.7
			C21.1,23.5,20.2,23.7,19.4,23.7z M19,22.2h0.4c0.6,0,1.2-0.2,1.9-0.5c1-0.5,1.5-1.3,1.5-2.4c0,0,0,0,0-0.1
			c-0.2-0.1-0.7-0.4-1.6-0.8l0,0c-1.1-0.5-1.5-0.7-1.8-0.8c-0.1,0.1-0.3,0.3-0.7,0.8c-0.7,0.9-1.2,1.3-1.6,1.4l-0.1,0
			c-0.4,0-1-0.1-2.5-1c-1.2-0.7-2.3-1.7-3.4-3C10.2,14.5,10,14,10,13.6c0-0.3,0.1-0.4,1-1.5c0.3-0.4,0.4-0.6,0.4-0.7
			c-0.1-0.2-0.2-0.6-0.8-1.9c-0.5-1.1-0.7-1.5-0.8-1.6C9.6,7.7,9.2,7.7,8.8,7.9C8.4,8,7.1,8.3,7.1,11.1c0,1.1,0.6,2.6,1.9,4.4
			c1.8,2.5,3.8,4.3,5.9,5.3C16.5,21.6,17.9,22.1,19,22.2z M16.9,18.4L16.9,18.4L16.9,18.4z"/>
	</g>
</g>
</svg>
