<?xml version="1.0" encoding="utf-8"?>
<!-- Generator: Adobe Illustrator 21.1.0, SVG Export Plug-In . SVG Version: 6.00 Build 0)  -->
<svg version="1.1" id="Layer_1" xmlns="http://www.w3.org/2000/svg" xmlns:xlink="http://www.w3.org/1999/xlink" x="0px" y="0px"
	 width="30px" height="30px" viewBox="0 0 30 30" enable-background="new 0 0 30 30" xml:space="preserve">
<path fill="#3D1216" d="M15,1.6c7.4,0,13.4,6,13.4,13.4s-6,13.4-13.4,13.4S1.6,22.4,1.6,15S7.6,1.6,15,1.6 M15,0C6.7,0,0,6.7,0,15
	s6.7,15,15,15s15-6.7,15-15S23.3,0,15,0L15,0z"/>
<g>
	<g>
		<path fill="#3D1216" d="M14.6,24.8c-1.9,0-3.6-0.5-5-1.3c-0.7-0.5-1.3-1.1-1.8-1.7c-0.4-0.7-0.5-1.5-0.2-2.2
			c0.3-0.8,1-1.4,1.8-1.6l0.5-0.1c1-0.2,2,0.2,2.5,1.1c0.5,0.7,1.2,1,2.4,1c0.7,0,1.3-0.1,1.6-0.4c0.3-0.3,0.4-0.5,0.4-0.7
			c0-0.2-0.1-0.4-0.3-0.5c-0.2-0.1-0.7-0.4-2.1-0.7c-2.4-0.5-4-1.2-5.1-2.1c-1.1-0.9-1.7-2.3-1.7-4C7.7,10.3,8,9,8.8,8
			c1.3-1.8,3.3-2.8,6-2.8c2.7,0,4.7,0.8,6,2.3c0.5,0.6,0.7,1.4,0.5,2.2c-0.2,0.8-0.8,1.5-1.6,1.7l-0.3,0.1c-0.9,0.3-1.9,0-2.6-0.9
			c-0.4-0.5-1-0.8-1.8-0.8c-1.6,0-1.6,0.5-1.6,0.8c0,0.2,0.1,0.3,0.2,0.5c0,0,0.4,0.3,1.7,0.6c1.8,0.4,3.2,0.7,4.1,1.1
			c0.9,0.4,1.7,1.1,2.4,2c0.7,0.9,1,2.1,1,3.3c0,1.8-0.7,3.4-2.1,4.7C19.2,24.1,17.2,24.8,14.6,24.8z M10.4,19.3c0,0-0.1,0-0.1,0
			l-0.5,0.1c-0.3,0.1-0.6,0.3-0.7,0.6c-0.1,0.2-0.1,0.4,0.1,0.7c0.4,0.5,0.8,1,1.3,1.3c1.1,0.7,2.5,1.1,4.1,1.1
			c2.2,0,3.8-0.5,4.8-1.5c1.1-1,1.6-2.2,1.6-3.5c0-0.8-0.3-1.7-0.7-2.3c-0.5-0.7-1-1.1-1.7-1.4c-0.8-0.3-2-0.7-3.7-1
			c-1.3-0.3-2-0.5-2.4-1c-0.5-0.4-0.7-1-0.7-1.6c0-0.9,0.4-2.4,3.2-2.4c1.3,0,2.4,0.5,3.1,1.4c0.2,0.2,0.5,0.5,0.9,0.3l0.3-0.1
			c0.3-0.1,0.5-0.4,0.6-0.7c0-0.2,0.1-0.5-0.2-0.7c-1-1.2-2.6-1.8-4.8-1.8c-2.1,0-3.7,0.7-4.7,2.1c-0.5,0.8-0.8,1.7-0.8,2.7
			c0,1.3,0.4,2.2,1.1,2.8c0.8,0.7,2.3,1.3,4.4,1.7c1.3,0.3,2.2,0.6,2.7,0.9c0.6,0.4,1,1.1,1,1.8c0,0.5-0.2,1.3-1,1.9
			c-0.6,0.5-1.5,0.7-2.6,0.7c-1.7,0-3-0.6-3.7-1.7C11,19.6,10.7,19.3,10.4,19.3z"/>
	</g>
</g>
</svg>
