<?xml version="1.0" encoding="utf-8"?>
<!-- Generator: Adobe Illustrator 21.1.0, SVG Export Plug-In . SVG Version: 6.00 Build 0)  -->
<svg version="1.1" id="Слой_1" xmlns="http://www.w3.org/2000/svg" xmlns:xlink="http://www.w3.org/1999/xlink" x="0px" y="0px"
	 width="30px" height="30px" viewBox="0 0 30 30" enable-background="new 0 0 30 30" xml:space="preserve">
<g>
	<path fill="#3D1216" d="M15,1.6c7.4,0,13.4,6,13.4,13.4s-6,13.4-13.4,13.4S1.6,22.4,1.6,15S7.6,1.6,15,1.6 M15,0C6.7,0,0,6.7,0,15
		s6.7,15,15,15c8.3,0,15-6.7,15-15S23.3,0,15,0"/>
	<g>
		<path fill="#3D1216" d="M19,23.6c-0.2,0-0.4-0.1-0.6-0.2l-7.6-5.6l1.8-1.6L10,17.9l-5.1-1.8c-0.4-0.1-0.7-0.5-0.7-0.9
			c0-0.4,0.2-0.8,0.6-0.9l16.7-6.3c0.3-0.1,0.7-0.1,1,0.2c0.3,0.2,0.4,0.6,0.3,1l-3,13.8c-0.1,0.3-0.3,0.6-0.6,0.7
			C19.2,23.6,19.1,23.6,19,23.6z M19.2,22.3L19.2,22.3C19.2,22.3,19.2,22.3,19.2,22.3z M13.1,17.8l5.6,4.1l2.7-12.3L6.5,15.2
			l3.3,1.2l8.3-5.3c0.4-0.2,0.8-0.1,1.1,0.2c0.2,0.4,0.2,0.8-0.2,1.1L13.1,17.8z M18.2,11.3C18.2,11.3,18.2,11.3,18.2,11.3
			L18.2,11.3z"/>
	</g>
	<g>
		
			<rect x="11.1" y="20" transform="matrix(0.6735 -0.7392 0.7392 0.6735 -11.1109 16.252)" fill="#3D1216" width="3.6" height="1.4"/>
	</g>
	<g>
		<path fill="#3D1216" d="M11.6,22.8c-0.3,0-0.7-0.2-0.8-0.6l-1.5-4.9l1.4-0.4l0.5,1.7l0.1-0.8l1.4,0.1l-0.3,4.2
			C12.3,22.5,12,22.8,11.6,22.8C11.6,22.8,11.6,22.8,11.6,22.8z M12.1,21.8L12.1,21.8C12.1,21.8,12.1,21.8,12.1,21.8z"/>
	</g>
</g>
</svg>
