<?xml version="1.0" encoding="utf-8"?>
<!-- Generator: Adobe Illustrator 21.1.0, SVG Export Plug-In . SVG Version: 6.00 Build 0)  -->
<svg version="1.1" id="Слой_1" xmlns="http://www.w3.org/2000/svg" xmlns:xlink="http://www.w3.org/1999/xlink" x="0px" y="0px"
	 width="30px" height="30px" viewBox="0 0 30 30" enable-background="new 0 0 30 30" xml:space="preserve">
<g>
	<path fill="#3D1216" d="M15,1.6c7.4,0,13.4,6,13.4,13.4s-6,13.4-13.4,13.4S1.6,22.4,1.6,15S7.6,1.6,15,1.6 M15,0C6.7,0,0,6.7,0,15
		s6.7,15,15,15s15-6.7,15-15S23.3,0,15,0"/>
	<g>
		<path fill="#3D1216" d="M20.8,22c-1.2,0-1.3,0-1.4,0c-0.7-0.2-1.4-0.6-2.1-1.4c-0.4-0.4-0.6-0.7-0.6-0.7c-0.1-0.1-0.1-0.1-0.2-0.2
			c0,0.1-0.1,0.3-0.1,0.5c-0.1,0.8-0.1,1.1-0.3,1.3c-0.3,0.4-0.8,0.5-2.2,0.5l-0.2,0c-1.1,0-2.2-0.3-3.3-0.9c-1-0.6-2-1.5-2.9-2.7
			c-1.2-1.6-2.3-3.6-3.4-5.9c-0.3-0.5-0.4-0.9-0.4-1.2c0-0.2,0.1-0.4,0.1-0.5c0.3-0.6,1.1-0.7,2.3-0.7H7c1,0,1.4,0.1,1.7,0.3
			l0.1,0.1C9,10.7,9.1,11,9.3,11.4c0.5,1.2,1,2.2,1.6,3c0,0.1,0.1,0.1,0.1,0.2c0-0.2,0-0.5,0-0.7c0-1.3-0.1-1.7-0.2-1.7l0,0
			c0,0-0.1-0.1-0.4-0.2l-0.8-0.2L10,11c0.2-0.8,1.1-1.3,2.5-1.3c0.3,0,0.5,0,0.8,0c1.6,0,2.5,0.3,2.9,0.9c0.2,0.3,0.3,0.7,0.3,1.4
			v0.2c-0.1,1-0.1,1.7-0.1,2.1c0,0.1,0,0.1,0,0.2c0.2-0.3,0.5-0.8,0.9-1.3c0.3-0.6,0.6-1.2,0.9-1.9c0.1-0.2,0.3-0.8,0.8-1
			c0.2-0.1,0.4-0.1,1.4-0.1c0.8,0,1.5,0,2.2,0l0.1,0c0.9,0,1.3,0.4,1.5,0.7c0.1,0.2,0.1,0.4,0.1,0.5c0,0.4-0.2,1-0.6,1.8
			c-0.3,0.5-0.7,1-1.2,1.6c-0.6,0.7-0.9,1.2-1.1,1.5c-0.1,0.1-0.1,0.2-0.1,0.3c0.1,0.1,0.2,0.3,0.5,0.6c1,0.9,1.5,1.6,1.8,1.9
			c0.5,0.7,0.8,1.2,0.8,1.6c0,0.1,0,0.2-0.1,0.3C23.9,22,22.4,22,21.8,22L20.8,22z M16.3,18L16.3,18c0.6,0,1,0.3,1.5,0.8
			c0,0,0.2,0.3,0.7,0.8c0.6,0.7,1,0.9,1.2,0.9c0.1,0,0.4,0,1.1,0l1,0c0.4,0,0.6,0,0.7,0c-0.1-0.1-0.2-0.2-0.3-0.4
			c-0.2-0.2-0.6-0.7-1.7-1.7l0,0c-0.6-0.6-0.9-1-1-1.4l0-0.1c0-0.4,0.1-0.8,0.4-1.3c0.2-0.3,0.6-0.8,1.2-1.6
			c0.5-0.6,0.8-1.1,1.1-1.5c0.2-0.3,0.3-0.5,0.3-0.6c-0.7,0-1.4,0-2.2,0c-0.4,0-0.6,0-0.7,0c0,0,0,0.1,0,0.1c-0.3,0.8-0.7,1.5-1,2.1
			c-0.5,0.9-1,1.5-1.3,1.9c-0.4,0.4-0.8,0.6-1.2,0.6c-0.6,0-1.2-0.3-1.3-1.6c0-0.1,0-0.3,0-0.6c0-0.5,0-1.2,0.1-2.2l0-0.2
			c0-0.3,0-0.5,0-0.5c-0.1-0.1-0.5-0.2-1.5-0.2c-0.2,0-0.4,0-0.7,0c-0.1,0-0.2,0-0.3,0c0,0,0.1,0.1,0.1,0.1c0.2,0.3,0.4,0.8,0.4,2.5
			c0,0.4,0,0.9-0.1,1.2c-0.2,1.1-0.7,1.4-1.1,1.4l-0.1,0c-0.5,0-0.9-0.2-1.2-0.6c-0.1-0.2-0.3-0.4-0.5-0.6c-0.7-1-1.3-2.1-1.8-3.3
			c-0.1-0.1-0.1-0.2-0.1-0.3c-0.1,0-0.3,0-0.8,0H6.1c-0.3,0-0.5,0-0.6,0c0,0,0,0.1,0,0.1c1,2.2,2.1,4.1,3.2,5.6
			c0.8,1,1.6,1.8,2.4,2.3c0.9,0.5,1.7,0.7,2.5,0.7h0.2c0.5,0,0.8,0,0.9-0.1c0-0.1,0-0.2,0-0.4c0-0.4,0.1-0.7,0.2-1
			C15.4,18.1,16,18,16.3,18L16.3,18z M15,20.3L15,20.3L15,20.3z M11,15.1L11,15.1L11,15.1z M15.9,15L15.9,15L15.9,15z"/>
	</g>
</g>
</svg>
