<?xml version="1.0" encoding="utf-8"?>
<!-- Generator: Adobe Illustrator 21.1.0, SVG Export Plug-In . SVG Version: 6.00 Build 0)  -->
<svg version="1.1" id="Слой_1" xmlns="http://www.w3.org/2000/svg" xmlns:xlink="http://www.w3.org/1999/xlink" x="0px" y="0px"
	 width="28.6px" height="30px" viewBox="0 0 28.6 30" enable-background="new 0 0 28.6 30" xml:space="preserve">
<path fill="#3D1215" d="M15,1.6c1,0,2,0.1,2.9,0.3c-0.1,0.1-0.2,0.2-0.3,0.2l-1.9,1.9l-0.1-0.1c-0.4-0.4-0.9-0.6-1.5-0.6
	c-0.6,0-1.1,0.2-1.5,0.6L9.2,7.3c-0.8,0.8-0.8,2.2,0,3l2.4,2.4l-0.1,0.1c-0.4,0.3-0.7,0.8-0.7,1.3c0,0.6,0.2,1.1,0.6,1.5l2.6,2.5
	l-0.1,0.1c-0.3,0.4-0.5,1-0.4,1.5c0.1,0.5,0.3,1,0.7,1.3l3.4,3.3c0.4,0.4,0.9,0.6,1.5,0.6c0.6,0,1.1-0.2,1.5-0.6l0.6-0.6
	c0.8,0.7,1.6,1.4,2.1,1.9c-2.1,1.7-4.7,2.7-7.7,2.8c-0.2,0-0.4,0-0.6,0C8,28.4,1.9,22.7,1.6,15.6c-0.2-3.7,1.2-7.2,3.7-9.9
	C7.9,3.1,11.3,1.6,15,1.6 M15,0C6.5,0-0.4,7.1,0,15.7C0.4,23.6,7.2,30,15.1,30c0.2,0,0.4,0,0.6,0c3.6-0.2,7-1.5,9.4-3.9
	c0.1-0.1,0.4-0.5,0-0.9c-0.4-0.4-3.6-3.3-3.6-3.3c-0.1-0.1-0.2-0.2-0.4-0.2c-0.1,0-0.3,0.1-0.4,0.2l-1.3,1.2
	c-0.1,0.1-0.2,0.2-0.4,0.2s-0.3-0.1-0.4-0.2l-3.5-3.3c-0.2-0.2-0.3-0.5-0.1-0.7l0.7-0.9c0.2-0.1,0.2-0.4,0-0.6l-3.4-3.3
	c-0.1-0.1-0.1-0.3,0-0.4l1-1c0.2-0.2,0.1-0.6-0.1-0.8l-3.1-3.1c-0.2-0.2-0.2-0.5,0-0.7L13.7,5c0.1-0.1,0.2-0.2,0.4-0.2
	c0.1,0,0.3,0.1,0.4,0.2l0.9,0.9c0.1,0.1,0.2,0.2,0.4,0.2S16,6,16.1,5.9l2.6-2.6c0.1-0.1,0.2-0.2,0.4-0.2c0.1,0,0.3,0.1,0.4,0.2
	L21,4.8C21.1,4.9,21.3,5,21.4,5c0.1,0,0.3-0.1,0.4-0.2l1.5-1.5c0.2-0.2,0.2-0.6-0.1-0.8C20.9,0.9,18,0,15,0"/>
<path fill="#3D1215" d="M16.3,9.1l-1.9,1.9c-0.2,0.2-0.5,0.2-0.6,0l-1.9-1.9c-0.2-0.2-0.2-0.5,0-0.6l1.9-1.9c0.2-0.2,0.5-0.2,0.6,0
	l1.9,1.9C16.5,8.7,16.5,9,16.3,9.1"/>
<path fill="#3D1215" d="M18.8,14.1l-1.9,1.9c-0.2,0.2-0.5,0.2-0.6,0l-1.9-1.9c-0.2-0.2-0.2-0.5,0-0.6l1.9-1.9c0.2-0.2,0.5-0.2,0.6,0
	l1.9,1.9C19,13.7,19,14,18.8,14.1"/>
<path fill="#3D1215" d="M21.6,19.4l-1.9,1.9c-0.2,0.2-0.5,0.2-0.6,0l-1.9-1.9c-0.2-0.2-0.2-0.5,0-0.6l1.9-1.9c0.2-0.2,0.5-0.2,0.6,0
	l1.9,1.9C21.8,19,21.8,19.3,21.6,19.4"/>
<path fill="#3D1215" d="M21.4,7.4l-1.5,1.5c-0.2,0.2-0.5,0.2-0.6,0l-1.5-1.5c-0.2-0.2-0.2-0.5,0-0.6l1.5-1.5c0.2-0.2,0.5-0.2,0.6,0
	l1.5,1.5C21.6,6.9,21.6,7.2,21.4,7.4"/>
<path fill="#3D1215" d="M23.5,11.7L22,13.2c-0.2,0.2-0.5,0.2-0.6,0l-1.5-1.5c-0.2-0.2-0.2-0.5,0-0.6l1.5-1.5c0.2-0.2,0.5-0.2,0.6,0
	l1.5,1.5C23.7,11.2,23.7,11.5,23.5,11.7"/>
<path fill="#3D1215" d="M25.9,16.2l-1.5,1.5c-0.2,0.2-0.5,0.2-0.6,0l-1.5-1.5c-0.2-0.2-0.2-0.5,0-0.6l1.5-1.5c0.2-0.2,0.5-0.2,0.6,0
	l1.5,1.5C26.1,15.7,26.1,16,25.9,16.2"/>
<path fill="#3D1215" d="M25.2,6.6l-0.9,0.9c-0.2,0.2-0.5,0.2-0.6,0l-0.9-0.9c-0.2-0.2-0.2-0.5,0-0.6L23.6,5c0.2-0.2,0.5-0.2,0.6,0
	l0.9,0.9C25.4,6.1,25.4,6.4,25.2,6.6"/>
<path fill="#3D1215" d="M26.8,9.7l-0.9,0.9c-0.2,0.2-0.5,0.2-0.6,0l-0.9-0.9c-0.2-0.2-0.2-0.5,0-0.6l0.9-0.9c0.2-0.2,0.5-0.2,0.6,0
	L26.8,9C26.9,9.2,26.9,9.5,26.8,9.7"/>
<path fill="#3D1215" d="M28.5,12.9l-0.9,0.9c-0.2,0.2-0.5,0.2-0.6,0l-0.9-0.9c-0.2-0.2-0.2-0.5,0-0.6l0.9-0.9c0.2-0.2,0.5-0.2,0.6,0
	l0.9,0.9C28.6,12.5,28.6,12.8,28.5,12.9"/>
<path fill="#3D1215" d="M28.1,20.7l-1.5,1.5c-0.2,0.2-0.5,0.2-0.6,0l-1.5-1.5c-0.2-0.2-0.2-0.5,0-0.6l1.5-1.5c0.2-0.2,0.5-0.2,0.6,0
	l1.5,1.5C28.3,20.3,28.3,20.5,28.1,20.7"/>
<rect x="0" y="0" display="none" fill="none" width="28.6" height="30"/>
</svg>
