<?xml version="1.0" encoding="utf-8"?>
<!-- Generator: Adobe Illustrator 21.1.0, SVG Export Plug-In . SVG Version: 6.00 Build 0)  -->
<svg version="1.1" id="Слой_1" xmlns="http://www.w3.org/2000/svg" xmlns:xlink="http://www.w3.org/1999/xlink" x="0px" y="0px"
	 width="333px" height="45.4px" viewBox="0 0 333 45.4" enable-background="new 0 0 333 45.4" xml:space="preserve">
<g>
	<path fill-rule="evenodd" clip-rule="evenodd" fill="#FFFFFF" fill-opacity=".2" d="M331,45.4c0-14.3-11.6-25.9-25.9-25.9h-23.4
		c-2.1-5.1-1.4-11.5,3.3-17.4c-13.1,0.6-23.9,17.4-23.9,17.4H27.9C13.6,19.4,2,31,2,45.4"/>
	<path fill="#000000" fill-opacity="1" d="M333,45.4h-4c0-13.2-10.7-23.9-23.9-23.9h-23.4c-0.8,0-1.6-0.5-1.9-1.3c-2-4.9-1.6-10.3,0.9-15.3
		c-10,3.4-17.9,15.5-18,15.6c-0.4,0.6-1,0.9-1.7,0.9H27.9C14.7,21.4,4,32.1,4,45.4H0c0-15.4,12.5-27.9,27.9-27.9h232.1
		c2.6-3.7,12.5-16.8,24.8-17.4c0.8,0,1.5,0.4,1.9,1.1c0.4,0.7,0.3,1.5-0.2,2.2c-3.6,4.5-4.8,9.5-3.4,14.2h21.9
		C320.5,17.4,333,29.9,333,45.4z"/>
</g>
</svg>
