<?xml version="1.0" encoding="utf-8"?>
<!-- Generator: Adobe Illustrator 21.1.0, SVG Export Plug-In . SVG Version: 6.00 Build 0)  -->
<svg version="1.1" id="Слой_1" xmlns="http://www.w3.org/2000/svg" xmlns:xlink="http://www.w3.org/1999/xlink" x="0px" y="0px"
	 width="333px" height="46.2px" viewBox="0 0 333 46.2" enable-background="new 0 0 333 46.2" xml:space="preserve">
<g>
	<path fill-rule="evenodd" clip-rule="evenodd" fill="#FFFFFF" fill-opacity=".2" d="M331,46.2c0-14.3-11.6-25.9-25.9-25.9l-120.1,0
		c-7.8,0-15-4.7-17.5-12.1c-0.7-1.9-1-4-1-6.1c0,0.3,0,0.7,0,1c-0.5,9.7-8.9,17.2-18.7,17.2H27.9C13.6,20.2,2,31.8,2,46.2"/>
	<path fill="#000000" fill-opacity="1" d="M333,46.2h-4c0-13.2-10.7-23.9-23.9-23.9H184.9c-8.1,0-15.3-4.5-18.6-11.5c-3.3,6.8-10.5,11.5-18.7,11.5
		H27.9C14.7,22.2,4,33,4,46.2H0c0-15.4,12.5-27.9,27.9-27.9h119.7c8.9,0,16.2-6.7,16.7-15.3c0-0.3,0-0.6,0-0.9c0-1.1,0.9-2,2-2
		s2,0.9,2,2c0,1.8,0.3,3.7,0.9,5.5c2.2,6.4,8.5,10.8,15.6,10.8h120.1C320.5,18.2,333,30.8,333,46.2z"/>
</g>
</svg>
