<?xml version="1.0" encoding="utf-8"?>
<!-- Generator: Adobe Illustrator 21.1.0, SVG Export Plug-In . SVG Version: 6.00 Build 0)  -->
<svg version="1.1" id="Layer_1" xmlns="http://www.w3.org/2000/svg" xmlns:xlink="http://www.w3.org/1999/xlink" x="0px" y="0px"
	 width="19px" height="19px" viewBox="0 0 19 19" enable-background="new 0 0 19 19" xml:space="preserve">
<path fill="#00CB18" d="M19,9.5c0,5.3-4.3,9.5-9.5,9.5C4.3,19,0,14.8,0,9.5S4.3,0,9.5,0c2.9,0,5.5,1.3,7.2,3.3
	c0.3,0.3,0.6,0.7,0.8,1.1C18.5,5.9,19,7.6,19,9.5z"/>
<g>
	<path fill="#FFFFFF" d="M8.4,15.9c-0.3,0-0.6-0.2-0.8-0.4L3.7,9.9C3.4,9.4,3.5,8.8,3.9,8.5C4.4,8.2,5,8.3,5.3,8.7l3,4.4l5.3-8.3
		c0.3-0.5,0.9-0.6,1.4-0.3s0.6,0.9,0.3,1.4l-6.1,9.6C9.1,15.7,8.8,15.9,8.4,15.9C8.4,15.9,8.4,15.9,8.4,15.9z"/>
</g>
</svg>
