<?xml version="1.0" encoding="utf-8"?>
<!-- Generator: Adobe Illustrator 21.1.0, SVG Export Plug-In . SVG Version: 6.00 Build 0)  -->
<svg version="1.1" id="Слой_1" xmlns="http://www.w3.org/2000/svg" xmlns:xlink="http://www.w3.org/1999/xlink" x="0px" y="0px"
	 width="268.7px" height="69.9px" viewBox="0 0 268.7 69.9" enable-background="new 0 0 268.7 69.9" xml:space="preserve">
<rect x="102.2" fill="#EC1941" width="10.8" height="10.7"/>
<path fill="#EC1941" d="M75.3,15.9c-3.9,0-7.6,1.1-10.8,2.9v-2.9H53.8v54h10.8V56.2C67.7,58,71.4,59,75.3,59
	c11.9,0,21.5-9.6,21.5-21.5v0v0C96.9,25.6,87.2,15.9,75.3,15.9 M75.9,48.3c-5.9,0.3-10.7-3.9-11.3-9.5v-2.6
	c0.6-5.2,4.9-9.2,10.2-9.5c6.5-0.3,11.7,4.9,11.4,11.4C85.9,43.6,81.5,48,75.9,48.3"/>
<path fill="#EC1941" d="M43.4,44.2c-0.3-0.8-0.2-1.7-0.3-2.9l0-25.4H32.4l0,3c-3.2-1.9-6.9-2.9-10.8-2.9C9.6,15.9,0,25.5,0,37.4
	C0,49.3,9.6,59,21.5,59c5.7,0,10.9-2.2,14.8-5.9c2.5,2.8,6.9,5.8,12.1,5.9l0-10.8C46.4,47.9,44.3,46.8,43.4,44.2 M22.1,48.3
	c-6.5,0.3-11.7-4.9-11.4-11.4c0.3-5.6,4.7-10,10.3-10.3c6.5-0.3,11.7,4.9,11.4,11.4C32.1,43.5,27.7,48,22.1,48.3"/>
<path fill="#EC1941" d="M113.2,44.2c-0.3-0.8-0.2-1.7-0.3-2.9l0-25.4h-10.7l0,9.1c0,0,0,14.9,0,18.1c0,4,2.2,8.1,3.9,10.1
	c2.5,2.8,6.9,5.8,12.1,5.9l0-10.8C116.2,47.9,114.1,46.8,113.2,44.2"/>
<polygon fill="#EC1941" points="134.2,16 128.8,16 128.8,59 150.7,59 150.7,53.6 134.2,53.6 "/>
<polygon fill="#EC1941" points="161.5,39.2 178.4,39.2 178.4,33.9 161.5,33.9 161.5,21.3 181.1,21.3 181.1,15.9 156.1,15.9 
	156.1,59 183.7,59 183.7,53.6 161.4,53.6 "/>
<path fill="#EC1941" d="M205.2,15.9L189.1,59l5.7,0l4-10.7h19l4,10.7h5.7l-16.1-43.1H205.2z M200.8,42.8l7.5-20l7.5,20H200.8z"/>
<path fill="#EC1941" d="M247.3,15.9l-14.3,0l0,43.1h14.6c12.4,0,21.1-10.7,21.3-21C268.8,25.7,259.3,15.9,247.3,15.9 M258.6,49
	c-3.2,3.2-7.4,4.7-10.9,4.7h-9.4l0-32.4h9.5c9.3,0.4,15.6,8.1,15.6,16.2C263.4,42.6,261.3,46.3,258.6,49"/>
<rect x="0" fill="none" width="268.7" height="69.9"/>
</svg>
