<?xml version="1.0" encoding="utf-8"?>
<!-- Generator: Adobe Illustrator 21.1.0, SVG Export Plug-In . SVG Version: 6.00 Build 0)  -->
<svg version="1.1" id="Слой_1" xmlns="http://www.w3.org/2000/svg" xmlns:xlink="http://www.w3.org/1999/xlink" x="0px" y="0px"
	 width="306.6px" height="368.4px" viewBox="0 0 306.6 368.4" enable-background="new 0 0 306.6 368.4" xml:space="preserve">
<rect x="27.5" y="-35" display="none" fill="none" width="302.6" height="352.4"/>
<g>
	<path fill="#E2D2D5" d="M295.1,283.7c2.4-4,3.8-8.6,3.8-13.6c0-7.3-3-14-7.9-18.7V5.8c0-2.4-1.9-4.3-4.3-4.3h-270
		c-2.4,0-4.3,1.9-4.3,4.3v199c-6.3,9.4-10,20.7-10,32.8c0,9.3,2.2,18.2,6.1,26c-1.6,4-2.5,8.4-2.5,13c0,19.2,15.6,34.8,34.8,34.8
		c10.1,0,19.2-4.3,25.5-11.1c2.3,6.4,8.4,11,15.7,11c0.6,0,1.2,0,1.8-0.1c3.5,8.5,12,14.6,21.8,14.6c2.8,0,5.4-0.5,7.8-1.3
		c5.5,10.7,16.7,18,29.6,18c10.8,0,20.3-5.1,26.4-13c3.1,2.1,6.8,3.3,10.8,3.3c3.6,0,6.9-1,9.8-2.7c6,4.6,13.5,7.4,21.6,7.4
		c5.3,0,10.4-1.2,14.9-3.3c7.6,11.9,20.9,19.8,36.1,19.8c23.6,0,42.7-19.1,42.7-42.7C305.1,300.7,301.4,291.2,295.1,283.7"/>
	<path d="M306.5,306.8c-0.2-3-0.8-6.1-1.7-9c-0.9-2.9-2-5.8-3.5-8.4c-0.7-1.3-1.5-2.7-2.4-3.9c-0.4-0.6-0.9-1.2-1.3-1.9
		c-0.3-0.4-0.3-0.4-0.4-0.5c-0.1,0-0.1,0-0.2-0.1c0.2-0.3,0.4-0.6,0.5-1c0.4-0.7,0.7-1.4,1-2.2c0.6-1.5,1-3,1.4-4.5
		c0.6-3.1,0.8-6.3,0.4-9.4c-0.4-3.1-1.3-6.2-2.7-9c-1.3-2.6-3-4.9-5-7l-0.6-90.2l-0.4-91l-0.2-45.5l0-11.4l0-5.7c0-0.5,0-0.9,0-1.5
		c0-0.6-0.2-1.1-0.4-1.6c-0.4-1-1.2-1.9-2.2-2.5c-0.5-0.3-1-0.5-1.6-0.6C286.8,0,286.5,0,286.2,0l-0.7,0l-2.8,0L277,0l-11.4,0
		l-91,0.1c-30.3,0.1-60.7-0.1-91-0.1L38.1,0L26.7,0l-5.7,0l-2.8,0l-1.4,0c-0.4,0-1,0-1.6,0.1c-1.1,0.2-2.1,0.9-2.9,1.7
		c-0.7,0.9-1.1,2-1.2,3.1l0,5.7l0,11.4l-0.4,91l-0.3,45.5L10,203.5c-2.8,4.3-5.1,8.9-6.8,13.7c-1.7,5-2.8,10.3-3.1,15.6
		c-0.4,5.3,0,10.7,1,15.9c1,4.9,2.6,9.7,4.7,14.3c-1.4,3.7-2.2,7.6-2.3,11.6c-0.1,4.2,0.4,8.5,1.7,12.6c2.6,8.1,8.2,15.2,15.3,19.8
		c3.6,2.3,7.6,4,11.7,4.9c2.1,0.4,4.2,0.8,6.3,0.8c2.1,0.2,4.3,0,6.4-0.2c4.2-0.5,8.3-1.8,12.1-3.8c2.9-1.5,5.6-3.4,8-5.6
		c1.5,2.7,3.7,5.1,6.4,6.7c1.7,1.1,3.7,1.9,5.7,2.4c1.6,0.4,3.1,0.5,4.7,0.4c1.2,2.5,2.8,4.8,4.7,6.7c2.3,2.3,4.9,4.2,7.9,5.5
		c1.5,0.7,3,1.2,4.6,1.6c1.6,0.3,3.2,0.6,4.8,0.6c2.7,0.1,5.3-0.2,7.9-0.9c2.7,4.6,6.4,8.6,10.9,11.6c4.9,3.3,10.6,5.4,16.5,5.9
		c5.9,0.5,11.9-0.4,17.3-2.8c4.9-2.1,9.2-5.4,12.7-9.4c2.9,1.7,6.3,2.6,9.7,2.7c3.6,0.1,7.1-0.7,10.3-2.4c5.2,3.7,11.3,6.1,17.6,6.8
		c6.2,0.7,12.5-0.2,18.3-2.6c6.6,9.6,17,16.5,28.5,18.6c6,1.1,12.2,1,18.2-0.3c6-1.3,11.6-3.9,16.5-7.5c4.9-3.6,9.1-8.2,12.2-13.5
		c3.1-5.3,5.1-11.2,5.8-17.2C306.6,312.9,306.8,309.8,306.5,306.8 M302.3,315.4c-0.7,5.5-2.5,10.9-5.3,15.7
		c-2.8,4.8-6.6,9-11.1,12.3c-4.5,3.3-9.6,5.6-15,6.9c-5.4,1.2-11.1,1.3-16.5,0.3c-10.9-2-20.8-8.8-26.8-18.2
		c-0.5-0.8-1.6-1.2-2.5-0.7c-5.5,2.6-11.7,3.6-17.8,2.9c-6-0.7-11.9-3.1-16.7-6.8c-0.6-0.5-1.5-0.6-2.3-0.1c-2.8,1.7-6,2.5-9.3,2.4
		c-3.2-0.1-6.4-1.1-9.1-3c-0.9-0.6-2.1-0.4-2.7,0.4l0,0c-3.2,4.1-7.5,7.5-12.2,9.6c-4.8,2.1-10.1,3-15.3,2.5
		c-5.2-0.4-10.3-2.3-14.6-5.2c-4.1-2.7-7.5-6.5-9.9-10.8c3.1-1.7,5.7-4,7.7-6.8c0.1-0.2,0.1-0.4,0-0.5c-0.2-0.2-0.4-0.1-0.5,0
		c-2.4,2.5-5.3,4.4-8.3,5.7c-2.8,0.7-7,1.2-9.7,1c-1.4,0-2.7-0.3-4-0.5c-1.3-0.3-2.6-0.7-3.9-1.3c-2.5-1.1-6.2-2.5-8.1-4.4
		c-1.9-1.9-5-6.7-5.5-8.2c0,0,0,0,0-0.1c-0.8-2.2-1.3-4.5-1.6-6.9l0,0c0-0.1-0.1-0.2-0.2-0.2c-0.1,0-0.2,0.1-0.2,0.2
		c-0.2,2.3,0,4.7,0.5,7c-0.9,0-1.9-0.1-2.8-0.3c-1.6-0.4-3.1-1-4.5-1.9c-2.8-1.7-4.9-4.4-6-7.5c0,0,0-0.1-0.1-0.1
		c2.6-3.2,4.5-6.9,5.8-10.8c0.1-0.2,0-0.5-0.3-0.6c-0.3-0.1-0.5,0-0.6,0.3c-1.5,3.7-3.6,7-6.2,10c-1.6,1.7-7.6,5.7-11,7.4
		c-3.4,1.7-7,2.9-10.8,3.4c-1.9,0.2-3.8,0.4-5.7,0.2c-1.9,0-3.8-0.4-5.6-0.7c-3.7-0.8-7.3-2.3-10.4-4.3
		c-6.4-4.1-11.4-10.4-13.7-17.6c-1.2-3.6-1.6-7.4-1.6-11.2c0.1-6.5,2.3-12.9,2.3-12.9c1.1-2.5,2.5-5,4.2-7.2c3.4-4.5,7.9-8,13-10.5
		l0,0c0.2-0.1,0.2-0.3,0.2-0.4c-0.1-0.2-0.3-0.3-0.4-0.2c-2.7,1-5.3,2.4-7.7,4c-2.4,1.7-4.6,3.6-6.6,5.9c-1.5,1.8-2.9,3.7-4,5.8
		c-1.5-3.6-2.7-7.4-3.5-11.2c-1-4.9-1.3-9.9-0.9-14.8c0.3-5,1.3-9.9,2.9-14.6c1.6-4.7,3.8-9.2,6.6-13.3l0,0c0.2-0.3,0.3-0.7,0.3-1.1
		v0l-0.4-45.5l-0.3-45.5l-0.4-91l0-11.4l0-5.7c0-0.8,0.3-1.5,0.8-2.1c0.5-0.6,1.2-1,1.9-1.2c0.7-0.1,1.7-0.1,2.7-0.1l2.8,0l5.7,0
		l11.4,0l45.5-0.1c30.3,0,60.7-0.1,91-0.1l91,0.1l11.4,0l5.7,0l2.8,0l0.7,0c0.2,0,0.4,0,0.6,0.1c0.4,0.1,0.7,0.2,1.1,0.4
		c0.7,0.4,1.2,1,1.5,1.7c0.1,0.4,0.2,0.7,0.3,1.1c0,0.4,0,0.9,0,1.4l0,5.7l0,11.4l-0.2,45.5l-0.4,91l-0.6,91c0,0.5,0.2,1,0.6,1.4
		l0.1,0.1l0,0c3.9,3.8,6.5,8.9,7.1,14.2c0.3,2.7,0.2,5.4-0.3,8.1c-0.3,1.3-0.7,2.6-1.2,3.9c-0.3,0.6-0.5,1.2-0.8,1.8
		c-0.1,0.3-0.3,0.6-0.5,0.9l-0.2,0.3c-0.1,0.2-0.2,0.4-0.3,0.6c-0.2,0.4-0.3,0.8-0.4,1.2c0.2,0.5,0.5,1,0.9,1.5
		c0.3,0.5,0.8,1,0.9,1.2c0.4,0.6,0.8,1.1,1.2,1.7c0.8,1.1,1.5,2.3,2.2,3.6c1.3,2.4,2.4,5,3.2,7.7c0.8,2.7,1.3,5.4,1.5,8.2
		C302.7,309.9,302.6,312.7,302.3,315.4"/>
	<path fill="#E2D2D5" d="M117.9,297.8c15.2,22.7,59.5,14.5,59.5,14.5s27.1,24.6,15.2,53.6c19.2-7.9,24.4-27.6,25.7-47.7
		c0,0,28.4,4.8,46.6-13.8"/>
	<path d="M118.1,297.7c3.1,4.3,7.5,7.6,12.3,9.7c4.8,2.2,10,3.5,15.2,4.2c5.2,0.7,10.5,0.8,15.8,0.7c5.3-0.2,10.6-0.7,15.7-1.6l0,0
		c0.6-0.1,1.1,0.1,1.5,0.4c1.9,1.8,3.6,3.6,5.3,5.6c1.6,1.9,3.2,4,4.6,6.1c2.8,4.2,5.2,8.8,6.8,13.7c1.7,4.9,2.6,10,2.6,15.3
		c0,5.2-1.1,10.4-3.1,15.3l-3.1-3.1c4.2-1.7,7.9-4.2,11.1-7.4c3.1-3.2,5.6-7,7.4-11.2c1.8-4.2,3.1-8.6,4-13.2
		c0.9-4.6,1.5-9.2,1.8-13.9v0l0-0.1c0.1-1.2,1.2-2.1,2.5-2c0.1,0,0.1,0,0.2,0c1.9,0.3,3.9,0.5,6,0.7c2,0.1,4.1,0.1,6.1,0.1
		c4.1-0.1,8.2-0.6,12.1-1.6c4-0.9,7.8-2.3,11.5-4.2c3.6-1.9,7-4.3,10-7.1l0,0c0.4-0.3,0.9-0.3,1.3,0c0.3,0.3,0.3,0.9,0,1.2
		c-2.9,3.1-6.3,5.9-10,8.1c-3.7,2.2-7.7,3.9-11.9,5.1c-4.1,1.2-8.4,2-12.7,2.4c-2.2,0.2-4.3,0.3-6.5,0.3c-2.2,0-4.3-0.1-6.6-0.4
		l2.7-2.1v0c-0.3,4.8-0.8,9.7-1.7,14.5c-0.9,4.8-2.2,9.6-4.3,14.2c-2,4.6-4.8,8.9-8.4,12.6c-3.6,3.6-8,6.5-12.7,8.4l0,0
		c-1.2,0.5-2.6-0.1-3.1-1.3c-0.2-0.6-0.2-1.2,0-1.8c1.8-4.3,2.8-8.9,3-13.5c0.1-4.7-0.6-9.3-2.1-13.8c-1.5-4.5-3.6-8.8-6.2-12.8
		c-1.3-2-2.7-4-4.1-5.9c-1.5-1.9-3.1-3.7-4.7-5.3l1.5,0.4c-5.5,0.8-10.8,1.2-16.3,1.2c-5.4,0-10.9-0.4-16.2-1.4
		c-5.3-1-10.7-2.5-15.5-5.1c-4.8-2.6-9.1-6.2-12-10.8c-0.1-0.1,0-0.2,0.1-0.3C117.9,297.6,118,297.6,118.1,297.7"/>
</g>
</svg>
